<svg width="300" height="46" viewBox="0 0 300 46" fill="none" xmlns="http://www.w3.org/2000/svg">
<rect width="140.367" height="45.8716" rx="4.58716" fill="#1A1A1A"/>
<path d="M48.1805 26.959C47.0561 26.959 46.2411 27.2737 45.7356 27.9029C45.2405 28.5219 44.9929 29.373 44.9929 30.4562C44.9929 30.9823 45.0548 31.462 45.1786 31.8952C45.3024 32.3182 45.4881 32.6844 45.7356 32.9939C45.9832 33.3034 46.2927 33.5458 46.6641 33.7212C47.0355 33.8862 47.4687 33.9688 47.9639 33.9688C48.2321 33.9688 48.4591 33.9636 48.6448 33.9533C48.8408 33.943 49.011 33.9223 49.1554 33.8914V30.1622H51.5693V35.4697C51.2805 35.5832 50.8163 35.7018 50.1767 35.8256C49.5371 35.9597 48.7479 36.0268 47.8092 36.0268C47.0045 36.0268 46.2721 35.903 45.6119 35.6554C44.9619 35.4078 44.4049 35.0468 43.9407 34.5722C43.4764 34.0977 43.1154 33.5149 42.8575 32.8237C42.6099 32.1325 42.4861 31.3433 42.4861 30.4562C42.4861 29.5587 42.6254 28.7643 42.9039 28.0732C43.1824 27.382 43.5641 26.7991 44.049 26.3246C44.5338 25.8397 45.1012 25.4735 45.7511 25.2259C46.4113 24.9784 47.1128 24.8546 47.8556 24.8546C48.3611 24.8546 48.815 24.8907 49.2173 24.9629C49.6299 25.0248 49.9807 25.1022 50.2695 25.195C50.5687 25.2775 50.8111 25.3652 50.9968 25.4581C51.1928 25.5509 51.3321 25.6231 51.4146 25.6747L50.7183 27.6089C50.3882 27.4336 50.0065 27.284 49.5732 27.1602C49.1502 27.0261 48.686 26.959 48.1805 26.959ZM61.2738 31.7405C61.2738 32.3801 61.181 32.9681 60.9953 33.5045C60.8096 34.0307 60.5414 34.4846 60.1907 34.8662C59.8399 35.2376 59.417 35.5265 58.9218 35.7328C58.4369 35.9391 57.8902 36.0423 57.2815 36.0423C56.6832 36.0423 56.1365 35.9391 55.6413 35.7328C55.1565 35.5265 54.7387 35.2376 54.3879 34.8662C54.0372 34.4846 53.7638 34.0307 53.5678 33.5045C53.3718 32.9681 53.2738 32.3801 53.2738 31.7405C53.2738 31.1009 53.3718 30.5181 53.5678 29.9919C53.7741 29.4658 54.0526 29.0171 54.4034 28.6457C54.7644 28.2743 55.1874 27.9855 55.6723 27.7792C56.1674 27.5728 56.7039 27.4697 57.2815 27.4697C57.8696 27.4697 58.406 27.5728 58.8908 27.7792C59.386 27.9855 59.809 28.2743 60.1597 28.6457C60.5105 29.0171 60.7838 29.4658 60.9798 29.9919C61.1758 30.5181 61.2738 31.1009 61.2738 31.7405ZM58.9218 31.7405C58.9218 31.0287 58.7774 30.4716 58.4885 30.0693C58.21 29.6567 57.8077 29.4503 57.2815 29.4503C56.7554 29.4503 56.348 29.6567 56.0591 30.0693C55.7703 30.4716 55.6258 31.0287 55.6258 31.7405C55.6258 32.4523 55.7703 33.0197 56.0591 33.4426C56.348 33.8553 56.7554 34.0616 57.2815 34.0616C57.8077 34.0616 58.21 33.8553 58.4885 33.4426C58.7774 33.0197 58.9218 32.4523 58.9218 31.7405ZM70.6731 31.7405C70.6731 32.3801 70.5802 32.9681 70.3946 33.5045C70.2089 34.0307 69.9407 34.4846 69.5899 34.8662C69.2392 35.2376 68.8162 35.5265 68.321 35.7328C67.8362 35.9391 67.2894 36.0423 66.6808 36.0423C66.0825 36.0423 65.5357 35.9391 65.0406 35.7328C64.5557 35.5265 64.1379 35.2376 63.7872 34.8662C63.4364 34.4846 63.163 34.0307 62.967 33.5045C62.771 32.9681 62.673 32.3801 62.673 31.7405C62.673 31.1009 62.771 30.5181 62.967 29.9919C63.1734 29.4658 63.4519 29.0171 63.8026 28.6457C64.1637 28.2743 64.5867 27.9855 65.0715 27.7792C65.5667 27.5728 66.1031 27.4697 66.6808 27.4697C67.2688 27.4697 67.8052 27.5728 68.2901 27.7792C68.7853 27.9855 69.2082 28.2743 69.559 28.6457C69.9097 29.0171 70.1831 29.4658 70.3791 29.9919C70.5751 30.5181 70.6731 31.1009 70.6731 31.7405ZM68.321 31.7405C68.321 31.0287 68.1766 30.4716 67.8878 30.0693C67.6092 29.6567 67.2069 29.4503 66.6808 29.4503C66.1547 29.4503 65.7472 29.6567 65.4584 30.0693C65.1695 30.4716 65.0251 31.0287 65.0251 31.7405C65.0251 32.4523 65.1695 33.0197 65.4584 33.4426C65.7472 33.8553 66.1547 34.0616 66.6808 34.0616C67.2069 34.0616 67.6092 33.8553 67.8878 33.4426C68.1766 33.0197 68.321 32.4523 68.321 31.7405ZM74.4243 31.4929C74.4243 32.7824 74.9453 33.4272 75.9872 33.4272C76.2245 33.4272 76.4463 33.3962 76.6526 33.3343C76.8589 33.2724 77.0343 33.2002 77.1787 33.1177V29.4349C77.0652 29.4142 76.9311 29.3988 76.7764 29.3885C76.6216 29.3678 76.4411 29.3575 76.2348 29.3575C75.6261 29.3575 75.1722 29.5587 74.8731 29.961C74.5739 30.3633 74.4243 30.874 74.4243 31.4929ZM79.4843 34.8044C79.4843 36.1351 79.1439 37.1203 78.463 37.7599C77.7925 38.4098 76.7506 38.7348 75.3373 38.7348C74.8421 38.7348 74.347 38.6883 73.8518 38.5955C73.3566 38.513 72.8976 38.3995 72.4746 38.2551L72.8769 36.3208C73.238 36.4652 73.6145 36.5787 74.0065 36.6612C74.4089 36.7438 74.8628 36.785 75.3682 36.785C76.0285 36.785 76.4927 36.6406 76.7609 36.3518C77.0394 36.0629 77.1787 35.6915 77.1787 35.2376V34.9436C76.9311 35.0571 76.6732 35.1448 76.405 35.2067C76.1471 35.2583 75.8634 35.284 75.5539 35.284C74.4295 35.284 73.5681 34.9539 72.9698 34.2937C72.3714 33.6232 72.0723 32.6896 72.0723 31.4929C72.0723 30.8946 72.1651 30.353 72.3508 29.8681C72.5365 29.373 72.8047 28.95 73.1555 28.5993C73.5165 28.2485 73.955 27.9803 74.4708 27.7946C74.9866 27.5986 75.5694 27.5006 76.2193 27.5006C76.4978 27.5006 76.7815 27.5161 77.0704 27.547C77.3696 27.5677 77.6636 27.5986 77.9524 27.6399C78.2413 27.6812 78.5146 27.7327 78.7725 27.7946C79.0407 27.8462 79.278 27.9029 79.4843 27.9648V34.8044ZM84.8964 35.9804C84.2258 35.9701 83.6791 35.8978 83.2561 35.7637C82.8435 35.6296 82.5134 35.4439 82.2658 35.2067C82.0285 34.9591 81.8635 34.6651 81.7706 34.3247C81.6881 33.9739 81.6468 33.5819 81.6468 33.1486V24.1892L83.9525 23.8178V32.6844C83.9525 32.8907 83.9679 33.0764 83.9989 33.2415C84.0298 33.4065 84.0866 33.5458 84.1691 33.6593C84.2619 33.7728 84.3909 33.8656 84.5559 33.9378C84.721 34.01 84.9428 34.0564 85.2213 34.0771L84.8964 35.9804ZM86.156 31.8179C86.156 31.0957 86.2644 30.4665 86.481 29.93C86.7079 29.3833 87.002 28.9294 87.363 28.5683C87.7241 28.2073 88.1367 27.9339 88.6009 27.7482C89.0755 27.5625 89.5603 27.4697 90.0555 27.4697C91.2109 27.4697 92.1239 27.8256 92.7944 28.5374C93.4649 29.2389 93.8002 30.2756 93.8002 31.6477C93.8002 31.7818 93.795 31.9313 93.7847 32.0964C93.7744 32.2511 93.7641 32.3904 93.7538 32.5142H88.5236C88.5751 32.9887 88.7969 33.3653 89.1889 33.6438C89.581 33.9223 90.1071 34.0616 90.7673 34.0616C91.1903 34.0616 91.6029 34.0255 92.0052 33.9533C92.4179 33.8708 92.7531 33.7728 93.011 33.6593L93.3205 35.5316C93.1967 35.5935 93.0317 35.6554 92.8253 35.7173C92.619 35.7792 92.3869 35.8308 92.129 35.8721C91.8814 35.9236 91.6132 35.9649 91.3244 35.9959C91.0355 36.0268 90.7467 36.0423 90.4578 36.0423C89.7254 36.0423 89.0858 35.934 88.539 35.7173C88.0026 35.5007 87.5539 35.2067 87.1928 34.8353C86.8421 34.4536 86.579 34.0049 86.4036 33.4891C86.2386 32.9733 86.156 32.4162 86.156 31.8179ZM91.5719 30.9359C91.5616 30.7398 91.5255 30.549 91.4636 30.3633C91.412 30.1776 91.3244 30.0126 91.2006 29.8681C91.0871 29.7237 90.9375 29.6051 90.7518 29.5122C90.5765 29.4194 90.3547 29.373 90.0864 29.373C89.8285 29.373 89.6067 29.4194 89.4211 29.5122C89.2354 29.5948 89.0806 29.7082 88.9568 29.8527C88.833 29.9971 88.735 30.1673 88.6628 30.3633C88.6009 30.549 88.5545 30.7398 88.5236 30.9359H91.5719ZM102.67 24.9784C104.269 24.9784 105.497 25.262 106.353 25.8294C107.209 26.3865 107.637 27.3046 107.637 28.5838C107.637 29.8733 107.204 30.8069 106.338 31.3846C105.471 31.952 104.233 32.2357 102.624 32.2357H101.866V35.8256H99.4516V25.2569C99.9777 25.1537 100.535 25.0815 101.123 25.0403C101.711 24.999 102.227 24.9784 102.67 24.9784ZM102.825 27.0364C102.65 27.0364 102.474 27.0416 102.299 27.0519C102.134 27.0622 101.989 27.0725 101.866 27.0828V30.1776H102.624C103.459 30.1776 104.089 30.0641 104.512 29.8372C104.935 29.6102 105.146 29.1873 105.146 28.5683C105.146 28.2692 105.089 28.0216 104.976 27.8256C104.873 27.6296 104.718 27.4748 104.512 27.3614C104.316 27.2376 104.073 27.155 103.784 27.1138C103.495 27.0622 103.176 27.0364 102.825 27.0364ZM112.505 35.9804C111.834 35.9701 111.287 35.8978 110.865 35.7637C110.452 35.6296 110.122 35.4439 109.874 35.2067C109.637 34.9591 109.472 34.6651 109.379 34.3247C109.296 33.9739 109.255 33.5819 109.255 33.1486V24.1892L111.561 23.8178V32.6844C111.561 32.8907 111.576 33.0764 111.607 33.2415C111.638 33.4065 111.695 33.5458 111.777 33.6593C111.87 33.7728 111.999 33.8656 112.164 33.9378C112.329 34.01 112.551 34.0564 112.83 34.0771L112.505 35.9804ZM117.488 34.2163C117.715 34.2163 117.932 34.2112 118.138 34.2009C118.344 34.1906 118.51 34.1751 118.633 34.1544V32.4059C118.54 32.3853 118.401 32.3646 118.216 32.344C118.03 32.3234 117.86 32.313 117.705 32.313C117.488 32.313 117.282 32.3285 117.086 32.3595C116.9 32.3801 116.735 32.4265 116.591 32.4987C116.446 32.5709 116.333 32.6689 116.25 32.7927C116.168 32.9165 116.127 33.0713 116.127 33.257C116.127 33.618 116.245 33.8708 116.482 34.0152C116.73 34.1493 117.065 34.2163 117.488 34.2163ZM117.303 27.4697C117.983 27.4697 118.551 27.547 119.005 27.7018C119.459 27.8565 119.82 28.0783 120.088 28.3672C120.366 28.656 120.562 29.0068 120.676 29.4194C120.789 29.832 120.846 30.2911 120.846 30.7966V35.5935C120.516 35.6657 120.057 35.7483 119.469 35.8411C118.881 35.9443 118.169 35.9959 117.334 35.9959C116.807 35.9959 116.328 35.9494 115.894 35.8566C115.471 35.7637 115.105 35.6142 114.796 35.4078C114.486 35.1912 114.249 34.9127 114.084 34.5722C113.919 34.2318 113.836 33.814 113.836 33.3188C113.836 32.8443 113.929 32.442 114.115 32.1119C114.311 31.7818 114.569 31.5187 114.889 31.3227C115.208 31.1267 115.575 30.9874 115.987 30.9049C116.4 30.8121 116.828 30.7656 117.272 30.7656C117.571 30.7656 117.834 30.7811 118.061 30.8121C118.298 30.8327 118.489 30.8636 118.633 30.9049V30.6883C118.633 30.2963 118.515 29.9816 118.277 29.7444C118.04 29.5071 117.628 29.3885 117.04 29.3885C116.647 29.3885 116.261 29.4194 115.879 29.4813C115.497 29.5329 115.167 29.6102 114.889 29.7134L114.595 27.8565C114.729 27.8153 114.894 27.774 115.09 27.7327C115.296 27.6812 115.518 27.6399 115.755 27.6089C115.992 27.5677 116.24 27.5367 116.498 27.5161C116.766 27.4851 117.034 27.4697 117.303 27.4697ZM129.961 27.6863C129.497 29.2543 129.012 30.7244 128.506 32.0964C128.001 33.4684 127.449 34.7992 126.851 36.0887C126.634 36.5529 126.417 36.9449 126.201 37.2647C125.984 37.5948 125.747 37.863 125.489 38.0694C125.231 38.286 124.937 38.4407 124.607 38.5336C124.287 38.6367 123.911 38.6883 123.477 38.6883C123.116 38.6883 122.781 38.6522 122.471 38.58C122.172 38.5181 121.925 38.4459 121.729 38.3634L122.131 36.522C122.368 36.6045 122.58 36.6612 122.765 36.6922C122.951 36.7231 123.147 36.7386 123.354 36.7386C123.766 36.7386 124.081 36.6251 124.297 36.3982C124.524 36.1815 124.715 35.8772 124.87 35.4852C124.344 34.4536 123.818 33.2982 123.292 32.019C122.765 30.7295 122.27 29.2853 121.806 27.6863H124.251C124.354 28.0886 124.473 28.5271 124.607 29.0016C124.751 29.4658 124.901 29.9404 125.056 30.4252C125.21 30.8997 125.365 31.364 125.52 31.8179C125.685 32.2718 125.84 32.6844 125.984 33.0558C126.118 32.6844 126.257 32.2718 126.402 31.8179C126.546 31.364 126.686 30.8997 126.82 30.4252C126.964 29.9404 127.098 29.4658 127.222 29.0016C127.356 28.5271 127.475 28.0886 127.578 27.6863H129.961Z" fill="white"/>
<path d="M48.7123 16.5655C48.0708 17.0832 47.3056 17.2858 46.4728 17.2858C44.4246 17.2858 42.9053 15.789 42.9053 13.8196C42.9053 11.8389 44.4246 10.3534 46.4728 10.3534C47.4293 10.3534 48.2509 10.6123 48.9374 11.2875L49.2975 10.9049C48.5997 10.1846 47.5982 9.82449 46.4615 9.82449C44.0757 9.82449 42.3314 11.5238 42.3314 13.8196C42.3314 16.1154 44.0757 17.8147 46.4503 17.8147C47.5306 17.8147 48.5547 17.4771 49.2637 16.8019V13.8534H48.7123V16.5655ZM52.3634 17.2408V14.0109H56.5611V13.5045H52.3634V10.3984H57.0563V9.88076H51.7895V17.7584H57.2251V17.2408H52.3634ZM60.8257 17.7584H61.3996V10.3984H64.2356V9.88076H57.9897V10.3984H60.8257V17.7584ZM68.5493 17.7584H69.1233V9.88076H68.5493V17.7584ZM73.3764 17.7584H73.9503V10.3984H76.7863V9.88076H70.5404V10.3984H73.3764V17.7584ZM84.4424 17.8147C86.7832 17.8147 88.5388 16.1154 88.5388 13.8196C88.5388 11.5238 86.7832 9.82449 84.4424 9.82449C82.0903 9.82449 80.346 11.5351 80.346 13.8196C80.346 16.1041 82.0903 17.8147 84.4424 17.8147ZM84.4424 17.2858C82.4279 17.2858 80.9199 15.8115 80.9199 13.8196C80.9199 11.8277 82.4279 10.3534 84.4424 10.3534C86.4456 10.3534 87.9536 11.8277 87.9536 13.8196C87.9536 15.8115 86.4456 17.2858 84.4424 17.2858ZM96.3702 9.88076V16.7231L91.0134 9.88076H90.5295V17.7584H91.1034V10.9161L96.4715 17.7584H96.9441V9.88076H96.3702Z" fill="white"/>
<g clip-path="url(#clip0_2_1789)">
<path d="M31.0632 18.0774C27.4681 16.0666 21.6977 12.8376 12.7474 7.82615C12.144 7.42763 11.4497 7.3754 10.8499 7.57844L26.206 22.9346L31.0632 18.0774Z" fill="#32BBFF"/>
<path d="M10.8499 7.57854C10.7375 7.61662 10.6281 7.66256 10.5235 7.71805C9.86103 8.07637 9.37427 8.76587 9.37427 9.63791V36.2315C9.37427 37.1035 9.86097 37.793 10.5235 38.1513C10.6279 38.2067 10.7373 38.2528 10.8496 38.2912L26.2061 22.9347L10.8499 7.57854Z" fill="#32BBFF"/>
<path d="M26.2061 22.9345L10.8495 38.291C11.4496 38.4955 12.1439 38.4473 12.7475 38.043C21.4273 33.1826 27.1326 29.9919 30.7694 27.9639C30.8706 27.9071 30.9698 27.8515 31.0679 27.7964L26.2061 22.9345Z" fill="#32BBFF"/>
<path d="M9.37433 22.9347V36.2315C9.37433 37.1036 9.86104 37.7931 10.5235 38.1514C10.628 38.2068 10.7373 38.2529 10.8496 38.2912L26.2062 22.9347H9.37433Z" fill="#2C9FD9"/>
<path d="M12.7477 7.82618C12.0311 7.35302 11.186 7.36649 10.5236 7.71805L25.9732 23.1677L31.0634 18.0774C27.4683 16.0666 21.6979 12.8377 12.7477 7.82618Z" fill="#29CC5E"/>
<path d="M25.9733 22.7018L10.5236 38.1514C11.1861 38.5028 12.0311 38.5232 12.7477 38.0432C21.4275 33.1828 27.1328 29.9921 30.7696 27.9642C30.8708 27.9073 30.97 27.8517 31.0681 27.7966L25.9733 22.7018Z" fill="#D93F21"/>
<path d="M37.4755 22.9345C37.4755 22.1977 37.1037 21.4541 36.3668 21.0418C36.3668 21.0418 34.9888 20.2728 30.7646 17.9101L25.7402 22.9345L30.7695 27.9639C34.9473 25.6182 36.3668 24.8273 36.3668 24.8273C37.1037 24.415 37.4755 23.6714 37.4755 22.9345Z" fill="#FFD500"/>
<path d="M36.3668 24.8275C37.1037 24.4152 37.4755 23.6716 37.4755 22.9347H25.7402L30.7695 27.9641C34.9473 25.6185 36.3668 24.8275 36.3668 24.8275Z" fill="#FFAA00"/>
</g>
<rect x="158.716" width="141.284" height="45.8716" rx="4.58716" fill="#1A1A1A"/>
<path d="M217.103 35.8256C216.989 35.4543 216.86 35.0726 216.716 34.6806C216.582 34.2886 216.447 33.8965 216.313 33.5045H212.135C212.001 33.8965 211.862 34.2886 211.718 34.6806C211.583 35.0726 211.46 35.4543 211.346 35.8256H208.839C209.242 34.6702 209.623 33.6025 209.985 32.6225C210.346 31.6425 210.696 30.7192 211.037 29.8527C211.387 28.9861 211.728 28.166 212.058 27.3923C212.398 26.6083 212.749 25.8449 213.11 25.1022H215.416C215.767 25.8449 216.112 26.6083 216.453 27.3923C216.793 28.166 217.133 28.9861 217.474 29.8527C217.825 30.7192 218.181 31.6425 218.542 32.6225C218.903 33.6025 219.284 34.6702 219.687 35.8256H217.103ZM214.209 27.5316C214.157 27.6863 214.08 27.8978 213.977 28.166C213.874 28.4342 213.755 28.7437 213.621 29.0944C213.487 29.4452 213.337 29.832 213.172 30.255C213.017 30.678 212.858 31.1215 212.692 31.5858H215.741C215.576 31.1215 215.416 30.678 215.261 30.255C215.106 29.832 214.957 29.4452 214.812 29.0944C214.678 28.7437 214.56 28.4342 214.456 28.166C214.353 27.8978 214.271 27.6863 214.209 27.5316ZM226.135 31.8179C226.135 31.1061 225.975 30.5387 225.655 30.1157C225.335 29.6825 224.861 29.4658 224.231 29.4658C224.025 29.4658 223.834 29.4761 223.659 29.4968C223.484 29.5071 223.339 29.5226 223.226 29.5432V33.7057C223.37 33.7985 223.556 33.8759 223.783 33.9378C224.02 33.9997 224.257 34.0307 224.495 34.0307C225.588 34.0307 226.135 33.2931 226.135 31.8179ZM228.487 31.756C228.487 32.3853 228.409 32.9578 228.255 33.4736C228.1 33.9894 227.873 34.433 227.574 34.8044C227.275 35.1757 226.903 35.4646 226.46 35.6709C226.016 35.8772 225.506 35.9804 224.928 35.9804C224.608 35.9804 224.309 35.9494 224.03 35.8875C223.752 35.8256 223.484 35.738 223.226 35.6245V38.6883H220.92V27.9648C221.126 27.9029 221.364 27.8462 221.632 27.7946C221.9 27.7327 222.179 27.6812 222.467 27.6399C222.767 27.5986 223.066 27.5677 223.365 27.547C223.674 27.5161 223.968 27.5006 224.247 27.5006C224.917 27.5006 225.516 27.6038 226.042 27.8101C226.568 28.0061 227.012 28.2898 227.373 28.6612C227.734 29.0222 228.007 29.4658 228.193 29.9919C228.389 30.5181 228.487 31.1061 228.487 31.756ZM235.474 31.8179C235.474 31.1061 235.314 30.5387 234.994 30.1157C234.674 29.6825 234.2 29.4658 233.57 29.4658C233.364 29.4658 233.173 29.4761 232.998 29.4968C232.822 29.5071 232.678 29.5226 232.564 29.5432V33.7057C232.709 33.7985 232.895 33.8759 233.122 33.9378C233.359 33.9997 233.596 34.0307 233.833 34.0307C234.927 34.0307 235.474 33.2931 235.474 31.8179ZM237.826 31.756C237.826 32.3853 237.748 32.9578 237.594 33.4736C237.439 33.9894 237.212 34.433 236.913 34.8044C236.613 35.1757 236.242 35.4646 235.799 35.6709C235.355 35.8772 234.844 35.9804 234.267 35.9804C233.947 35.9804 233.648 35.9494 233.369 35.8875C233.091 35.8256 232.822 35.738 232.564 35.6245V38.6883H230.259V27.9648C230.465 27.9029 230.702 27.8462 230.971 27.7946C231.239 27.7327 231.517 27.6812 231.806 27.6399C232.105 27.5986 232.405 27.5677 232.704 27.547C233.013 27.5161 233.307 27.5006 233.586 27.5006C234.256 27.5006 234.855 27.6038 235.381 27.8101C235.907 28.0061 236.35 28.2898 236.712 28.6612C237.073 29.0222 237.346 29.4658 237.532 29.9919C237.728 30.5181 237.826 31.1061 237.826 31.756ZM246.394 33.9842C246.735 33.9842 247.013 33.9584 247.23 33.9069C247.457 33.845 247.637 33.7676 247.772 33.6748C247.906 33.5716 247.998 33.453 248.05 33.3188C248.102 33.1847 248.127 33.0352 248.127 32.8701C248.127 32.5194 247.962 32.2305 247.632 32.0036C247.302 31.7663 246.735 31.5135 245.93 31.2453C245.579 31.1215 245.229 30.9823 244.878 30.8275C244.527 30.6625 244.213 30.4613 243.934 30.224C243.655 29.9765 243.429 29.6825 243.253 29.342C243.078 28.9913 242.99 28.5683 242.99 28.0732C242.99 27.578 243.083 27.1344 243.269 26.7424C243.454 26.3401 243.717 25.9996 244.058 25.7211C244.398 25.4426 244.811 25.2311 245.296 25.0867C245.781 24.9319 246.327 24.8546 246.936 24.8546C247.658 24.8546 248.282 24.9319 248.808 25.0867C249.334 25.2414 249.768 25.4116 250.108 25.5973L249.412 27.5006C249.113 27.3459 248.777 27.2118 248.406 27.0983C248.045 26.9745 247.606 26.9126 247.091 26.9126C246.513 26.9126 246.095 26.9951 245.837 27.1602C245.59 27.3149 245.466 27.5574 245.466 27.8875C245.466 28.0835 245.512 28.2485 245.605 28.3826C245.698 28.5167 245.827 28.6405 245.992 28.754C246.167 28.8572 246.363 28.9552 246.58 29.048C246.807 29.1306 247.055 29.2182 247.323 29.3111C247.88 29.5174 248.365 29.7237 248.777 29.93C249.19 30.126 249.53 30.3582 249.799 30.6264C250.077 30.8946 250.283 31.2092 250.418 31.5703C250.552 31.9313 250.619 32.3698 250.619 32.8856C250.619 33.8862 250.268 34.6651 249.567 35.2222C248.865 35.7689 247.808 36.0423 246.394 36.0423C245.92 36.0423 245.492 36.0113 245.11 35.9494C244.728 35.8978 244.388 35.8308 244.089 35.7483C243.8 35.6657 243.547 35.5781 243.331 35.4852C243.124 35.3924 242.949 35.3047 242.804 35.2222L243.485 33.3034C243.805 33.4787 244.197 33.6386 244.661 33.7831C245.136 33.9172 245.714 33.9842 246.394 33.9842ZM252.244 25.6592L254.55 25.2878V27.6863H257.319V29.6051H254.55V32.4678C254.55 32.9526 254.632 33.3395 254.797 33.6283C254.973 33.9172 255.318 34.0616 255.834 34.0616C256.082 34.0616 256.334 34.041 256.592 33.9997C256.86 33.9481 257.103 33.8811 257.319 33.7985L257.644 35.5935C257.366 35.707 257.056 35.805 256.716 35.8875C256.376 35.9701 255.958 36.0113 255.463 36.0113C254.833 36.0113 254.312 35.9288 253.9 35.7637C253.487 35.5884 253.157 35.3511 252.909 35.0519C252.662 34.7425 252.486 34.3711 252.383 33.9378C252.29 33.5045 252.244 33.0248 252.244 32.4987V25.6592ZM266.508 31.7405C266.508 32.3801 266.415 32.9681 266.229 33.5045C266.044 34.0307 265.776 34.4846 265.425 34.8662C265.074 35.2376 264.651 35.5265 264.156 35.7328C263.671 35.9391 263.124 36.0423 262.516 36.0423C261.917 36.0423 261.371 35.9391 260.875 35.7328C260.391 35.5265 259.973 35.2376 259.622 34.8662C259.271 34.4846 258.998 34.0307 258.802 33.5045C258.606 32.9681 258.508 32.3801 258.508 31.7405C258.508 31.1009 258.606 30.5181 258.802 29.9919C259.008 29.4658 259.287 29.0171 259.638 28.6457C259.999 28.2743 260.422 27.9855 260.906 27.7792C261.402 27.5728 261.938 27.4697 262.516 27.4697C263.104 27.4697 263.64 27.5728 264.125 27.7792C264.62 27.9855 265.043 28.2743 265.394 28.6457C265.745 29.0171 266.018 29.4658 266.214 29.9919C266.41 30.5181 266.508 31.1009 266.508 31.7405ZM264.156 31.7405C264.156 31.0287 264.012 30.4716 263.723 30.0693C263.444 29.6567 263.042 29.4503 262.516 29.4503C261.99 29.4503 261.582 29.6567 261.293 30.0693C261.004 30.4716 260.86 31.0287 260.86 31.7405C260.86 32.4523 261.004 33.0197 261.293 33.4426C261.582 33.8553 261.99 34.0616 262.516 34.0616C263.042 34.0616 263.444 33.8553 263.723 33.4426C264.012 33.0197 264.156 32.4523 264.156 31.7405ZM273.199 29.7289C272.993 29.6773 272.751 29.6257 272.472 29.5741C272.194 29.5122 271.894 29.4813 271.575 29.4813C271.43 29.4813 271.255 29.4968 271.048 29.5277C270.852 29.5483 270.703 29.5741 270.6 29.6051V35.8256H268.294V28.1196C268.707 27.9752 269.192 27.8411 269.749 27.7173C270.316 27.5832 270.945 27.5161 271.636 27.5161C271.76 27.5161 271.91 27.5264 272.085 27.547C272.261 27.5574 272.436 27.578 272.611 27.6089C272.787 27.6296 272.962 27.6605 273.137 27.7018C273.313 27.7327 273.462 27.774 273.586 27.8256L273.199 29.7289ZM274.284 31.8179C274.284 31.0957 274.393 30.4665 274.609 29.93C274.836 29.3833 275.13 28.9294 275.491 28.5683C275.852 28.2073 276.265 27.9339 276.729 27.7482C277.204 27.5625 277.688 27.4697 278.184 27.4697C279.339 27.4697 280.252 27.8256 280.923 28.5374C281.593 29.2389 281.928 30.2756 281.928 31.6477C281.928 31.7818 281.923 31.9313 281.913 32.0964C281.903 32.2511 281.892 32.3904 281.882 32.5142H276.652C276.703 32.9887 276.925 33.3653 277.317 33.6438C277.709 33.9223 278.235 34.0616 278.895 34.0616C279.318 34.0616 279.731 34.0255 280.133 33.9533C280.546 33.8708 280.881 33.7728 281.139 33.6593L281.449 35.5316C281.325 35.5935 281.16 35.6554 280.954 35.7173C280.747 35.7792 280.515 35.8308 280.257 35.8721C280.01 35.9236 279.741 35.9649 279.453 35.9959C279.164 36.0268 278.875 36.0423 278.586 36.0423C277.854 36.0423 277.214 35.934 276.667 35.7173C276.131 35.5007 275.682 35.2067 275.321 34.8353C274.97 34.4536 274.707 34.0049 274.532 33.4891C274.367 32.9733 274.284 32.4162 274.284 31.8179ZM279.7 30.9359C279.69 30.7398 279.654 30.549 279.592 30.3633C279.54 30.1776 279.453 30.0126 279.329 29.8681C279.215 29.7237 279.066 29.6051 278.88 29.5122C278.705 29.4194 278.483 29.373 278.215 29.373C277.957 29.373 277.735 29.4194 277.549 29.5122C277.364 29.5948 277.209 29.7082 277.085 29.8527C276.961 29.9971 276.863 30.1673 276.791 30.3633C276.729 30.549 276.683 30.7398 276.652 30.9359H279.7Z" fill="white"/>
<path d="M209.968 17.7584H213.175C215.696 17.7584 217.395 16.1379 217.395 13.8196C217.395 11.5013 215.696 9.88076 213.175 9.88076H209.968V17.7584ZM210.8 17.0382V10.601H213.13C215.223 10.601 216.574 11.929 216.574 13.8196C216.574 15.7102 215.223 17.0382 213.13 17.0382H210.8ZM221.516 17.8147C223.249 17.8147 224.521 16.5543 224.521 14.7987C224.521 13.0431 223.249 11.7939 221.516 11.7939C219.783 11.7939 218.5 13.0431 218.5 14.7987C218.5 16.5543 219.783 17.8147 221.516 17.8147ZM221.516 17.1057C220.256 17.1057 219.31 16.1829 219.31 14.7987C219.31 13.4145 220.256 12.4916 221.516 12.4916C222.776 12.4916 223.71 13.4145 223.71 14.7987C223.71 16.1829 222.776 17.1057 221.516 17.1057ZM233.944 11.8389L232.064 16.8694L230.174 11.8389H229.487L227.585 16.8694L225.728 11.8389H224.963L227.191 17.7584H227.945L229.813 12.908L231.682 17.7584H232.436L234.675 11.8389H233.944ZM238.894 11.7939C237.87 11.7939 237.071 12.2103 236.643 12.9305V11.8389H235.878V17.7584H236.677V14.6524C236.677 13.3019 237.476 12.5142 238.748 12.5142C239.873 12.5142 240.526 13.1556 240.526 14.4048V17.7584H241.325V14.326C241.325 12.6267 240.335 11.7939 238.894 11.7939ZM243.494 17.7584H244.293V9.4081H243.494V17.7584ZM248.936 17.8147C250.669 17.8147 251.941 16.5543 251.941 14.7987C251.941 13.0431 250.669 11.7939 248.936 11.7939C247.203 11.7939 245.92 13.0431 245.92 14.7987C245.92 16.5543 247.203 17.8147 248.936 17.8147ZM248.936 17.1057C247.676 17.1057 246.73 16.1829 246.73 14.7987C246.73 13.4145 247.676 12.4916 248.936 12.4916C250.197 12.4916 251.131 13.4145 251.131 14.7987C251.131 16.1829 250.197 17.1057 248.936 17.1057ZM255.61 11.7939C254.676 11.7939 253.798 12.0865 253.202 12.5929L253.562 13.1894C254.046 12.7617 254.766 12.4916 255.531 12.4916C256.634 12.4916 257.208 13.0431 257.208 14.0559V14.4161H255.329C253.629 14.4161 253.044 15.1813 253.044 16.0929C253.044 17.117 253.866 17.8147 255.205 17.8147C256.184 17.8147 256.882 17.4433 257.242 16.8356V17.7584H258.007V14.0897C258.007 12.5592 257.14 11.7939 255.61 11.7939ZM255.329 17.1845C254.383 17.1845 253.832 16.7568 253.832 16.0704C253.832 15.4627 254.203 15.0125 255.351 15.0125H257.208V15.9803C256.893 16.7568 256.229 17.1845 255.329 17.1845ZM264.802 9.4081V12.9643C264.307 12.199 263.497 11.7939 262.551 11.7939C260.863 11.7939 259.603 13.0093 259.603 14.7987C259.603 16.588 260.863 17.8147 262.551 17.8147C263.53 17.8147 264.352 17.3871 264.836 16.588V17.7584H265.601V9.4081H264.802ZM262.619 17.1057C261.358 17.1057 260.413 16.1829 260.413 14.7987C260.413 13.4145 261.358 12.4916 262.619 12.4916C263.868 12.4916 264.813 13.4145 264.813 14.7987C264.813 16.1829 263.868 17.1057 262.619 17.1057ZM273.191 17.8147C274.924 17.8147 276.196 16.5543 276.196 14.7987C276.196 13.0431 274.924 11.7939 273.191 11.7939C271.458 11.7939 270.175 13.0431 270.175 14.7987C270.175 16.5543 271.458 17.8147 273.191 17.8147ZM273.191 17.1057C271.931 17.1057 270.986 16.1829 270.986 14.7987C270.986 13.4145 271.931 12.4916 273.191 12.4916C274.452 12.4916 275.386 13.4145 275.386 14.7987C275.386 16.1829 274.452 17.1057 273.191 17.1057ZM280.843 11.7939C279.819 11.7939 279.02 12.2103 278.593 12.9305V11.8389H277.827V17.7584H278.626V14.6524C278.626 13.3019 279.425 12.5142 280.697 12.5142C281.822 12.5142 282.475 13.1556 282.475 14.4048V17.7584H283.274V14.326C283.274 12.6267 282.284 11.7939 280.843 11.7939Z" fill="white"/>
<g clip-path="url(#clip1_2_1789)">
<path d="M194.243 7.4619C194.315 7.4619 194.387 7.4619 194.463 7.4619C194.64 9.64442 193.807 11.2752 192.794 12.4561C191.801 13.6289 190.44 14.7664 188.24 14.5938C188.093 12.4426 188.928 10.9327 189.939 9.7545C190.877 8.65644 192.596 7.67934 194.243 7.4619Z" fill="white"/>
<path d="M200.903 30.1786C200.903 30.2004 200.903 30.2194 200.903 30.2398C200.285 32.1124 199.403 33.7174 198.327 35.2068C197.344 36.559 196.14 38.3787 193.99 38.3787C192.132 38.3787 190.898 37.1841 188.995 37.1515C186.981 37.1189 185.873 38.1504 184.032 38.4099C183.821 38.4099 183.61 38.4099 183.404 38.4099C182.051 38.2143 180.96 37.1434 180.165 36.1785C177.821 33.3274 176.009 29.6445 175.672 24.9316C175.672 24.4695 175.672 24.0089 175.672 23.5468C175.815 20.1738 177.454 17.4314 179.633 16.1023C180.782 15.3956 182.363 14.7936 184.123 15.0627C184.877 15.1796 185.647 15.4378 186.323 15.6933C186.963 15.9392 187.763 16.3755 188.522 16.3524C189.035 16.3374 189.546 16.0697 190.064 15.8808C191.581 15.3331 193.067 14.7053 195.027 15.0002C197.382 15.3562 199.054 16.4027 200.086 18.0171C198.094 19.285 196.519 21.1958 196.788 24.4587C197.027 27.4226 198.751 29.1567 200.903 30.1786Z" fill="white"/>
</g>
<defs>
<clipPath id="clip0_2_1789">
<rect width="30.948" height="30.948" fill="white" transform="translate(7.95105 7.46175)"/>
</clipPath>
<clipPath id="clip1_2_1789">
<rect width="30.948" height="30.948" fill="white" transform="translate(172.813 7.46175)"/>
</clipPath>
</defs>
</svg>
