<svg width="142" height="46" viewBox="0 0 142 46" fill="none" xmlns="http://www.w3.org/2000/svg">
<rect x="0.715576" width="141.284" height="45.8716" rx="4.58716" fill="#1A1A1A"/>
<path d="M59.1026 35.8256C58.9891 35.4543 58.8601 35.0726 58.7157 34.6806C58.5816 34.2886 58.4475 33.8965 58.3134 33.5045H54.1354C54.0013 33.8965 53.862 34.2886 53.7176 34.6806C53.5835 35.0726 53.4597 35.4543 53.3462 35.8256H50.8394C51.2418 34.6702 51.6234 33.6025 51.9845 32.6225C52.3456 31.6425 52.6963 30.7192 53.0367 29.8527C53.3875 28.9861 53.7279 28.166 54.058 27.3923C54.3985 26.6083 54.7492 25.8449 55.1103 25.1022H57.4159C57.7666 25.8449 58.1122 26.6083 58.4526 27.3923C58.7931 28.166 59.1335 28.9861 59.4739 29.8527C59.8247 30.7192 60.1806 31.6425 60.5416 32.6225C60.9027 33.6025 61.2844 34.6702 61.6867 35.8256H59.1026ZM56.2089 27.5316C56.1573 27.6863 56.08 27.8978 55.9768 28.166C55.8736 28.4342 55.755 28.7437 55.6209 29.0944C55.4868 29.4452 55.3372 29.832 55.1722 30.255C55.0174 30.678 54.8575 31.1215 54.6925 31.5858H57.7408C57.5758 31.1215 57.4159 30.678 57.2611 30.255C57.1064 29.832 56.9568 29.4452 56.8124 29.0944C56.6783 28.7437 56.5597 28.4342 56.4565 28.166C56.3533 27.8978 56.2708 27.6863 56.2089 27.5316ZM68.1348 31.8179C68.1348 31.1061 67.9749 30.5387 67.6551 30.1157C67.3353 29.6825 66.8608 29.4658 66.2315 29.4658C66.0252 29.4658 65.8343 29.4761 65.6589 29.4968C65.4836 29.5071 65.3391 29.5226 65.2257 29.5432V33.7057C65.3701 33.7985 65.5558 33.8759 65.7827 33.9378C66.02 33.9997 66.2573 34.0307 66.4945 34.0307C67.588 34.0307 68.1348 33.2931 68.1348 31.8179ZM70.4868 31.756C70.4868 32.3853 70.4095 32.9578 70.2547 33.4736C70.1 33.9894 69.873 34.433 69.5739 34.8044C69.2747 35.1757 68.9033 35.4646 68.4597 35.6709C68.0161 35.8772 67.5055 35.9804 66.9278 35.9804C66.608 35.9804 66.3088 35.9494 66.0303 35.8875C65.7518 35.8256 65.4836 35.738 65.2257 35.6245V38.6883H62.92V27.9648C63.1264 27.9029 63.3636 27.8462 63.6318 27.7946C63.9001 27.7327 64.1786 27.6812 64.4674 27.6399C64.7666 27.5986 65.0658 27.5677 65.3649 27.547C65.6744 27.5161 65.9684 27.5006 66.2469 27.5006C66.9175 27.5006 67.5158 27.6038 68.0419 27.8101C68.568 28.0061 69.0116 28.2898 69.3727 28.6612C69.7338 29.0222 70.0071 29.4658 70.1928 29.9919C70.3888 30.5181 70.4868 31.1061 70.4868 31.756ZM77.4736 31.8179C77.4736 31.1061 77.3137 30.5387 76.9939 30.1157C76.6741 29.6825 76.1996 29.4658 75.5703 29.4658C75.364 29.4658 75.1731 29.4761 74.9977 29.4968C74.8224 29.5071 74.6779 29.5226 74.5645 29.5432V33.7057C74.7089 33.7985 74.8946 33.8759 75.1215 33.9378C75.3588 33.9997 75.5961 34.0307 75.8333 34.0307C76.9268 34.0307 77.4736 33.2931 77.4736 31.8179ZM79.8256 31.756C79.8256 32.3853 79.7483 32.9578 79.5935 33.4736C79.4388 33.9894 79.2118 34.433 78.9127 34.8044C78.6135 35.1757 78.2421 35.4646 77.7985 35.6709C77.3549 35.8772 76.8443 35.9804 76.2666 35.9804C75.9468 35.9804 75.6476 35.9494 75.3691 35.8875C75.0906 35.8256 74.8224 35.738 74.5645 35.6245V38.6883H72.2588V27.9648C72.4652 27.9029 72.7024 27.8462 72.9706 27.7946C73.2389 27.7327 73.5174 27.6812 73.8062 27.6399C74.1054 27.5986 74.4046 27.5677 74.7037 27.547C75.0132 27.5161 75.3072 27.5006 75.5858 27.5006C76.2563 27.5006 76.8546 27.6038 77.3807 27.8101C77.9069 28.0061 78.3504 28.2898 78.7115 28.6612C79.0726 29.0222 79.3459 29.4658 79.5316 29.9919C79.7276 30.5181 79.8256 31.1061 79.8256 31.756ZM88.3944 33.9842C88.7348 33.9842 89.0133 33.9584 89.23 33.9069C89.4569 33.845 89.6374 33.7676 89.7715 33.6748C89.9057 33.5716 89.9985 33.453 90.0501 33.3188C90.1017 33.1847 90.1274 33.0352 90.1274 32.8701C90.1274 32.5194 89.9624 32.2305 89.6323 32.0036C89.3022 31.7663 88.7348 31.5135 87.9301 31.2453C87.5794 31.1215 87.2287 30.9823 86.8779 30.8275C86.5272 30.6625 86.2125 30.4613 85.934 30.224C85.6555 29.9765 85.4285 29.6825 85.2531 29.342C85.0778 28.9913 84.9901 28.5683 84.9901 28.0732C84.9901 27.578 85.0829 27.1344 85.2686 26.7424C85.4543 26.3401 85.7174 25.9996 86.0578 25.7211C86.3982 25.4426 86.8109 25.2311 87.2957 25.0867C87.7806 24.9319 88.3273 24.8546 88.936 24.8546C89.6581 24.8546 90.2822 24.9319 90.8083 25.0867C91.3344 25.2414 91.7677 25.4116 92.1081 25.5973L91.4118 27.5006C91.1126 27.3459 90.7774 27.2118 90.406 27.0983C90.0449 26.9745 89.6065 26.9126 89.0907 26.9126C88.513 26.9126 88.0952 26.9951 87.8373 27.1602C87.5897 27.3149 87.4659 27.5574 87.4659 27.8875C87.4659 28.0835 87.5123 28.2485 87.6052 28.3826C87.698 28.5167 87.827 28.6405 87.992 28.754C88.1674 28.8572 88.3634 28.9552 88.58 29.048C88.807 29.1306 89.0546 29.2182 89.3228 29.3111C89.8799 29.5174 90.3647 29.7237 90.7774 29.93C91.19 30.126 91.5304 30.3582 91.7986 30.6264C92.0772 30.8946 92.2835 31.2092 92.4176 31.5703C92.5517 31.9313 92.6188 32.3698 92.6188 32.8856C92.6188 33.8862 92.268 34.6651 91.5665 35.2222C90.865 35.7689 89.8077 36.0423 88.3944 36.0423C87.9198 36.0423 87.4917 36.0113 87.11 35.9494C86.7283 35.8978 86.3879 35.8308 86.0887 35.7483C85.7999 35.6657 85.5471 35.5781 85.3305 35.4852C85.1242 35.3924 84.9488 35.3047 84.8044 35.2222L85.4852 33.3034C85.805 33.4787 86.1971 33.6386 86.6613 33.7831C87.1358 33.9172 87.7135 33.9842 88.3944 33.9842ZM94.244 25.6592L96.5496 25.2878V27.6863H99.3195V29.6051H96.5496V32.4678C96.5496 32.9526 96.6322 33.3395 96.7972 33.6283C96.9726 33.9172 97.3182 34.0616 97.834 34.0616C98.0816 34.0616 98.3343 34.041 98.5922 33.9997C98.8604 33.9481 99.1029 33.8811 99.3195 33.7985L99.6444 35.5935C99.3659 35.707 99.0564 35.805 98.716 35.8875C98.3756 35.9701 97.9578 36.0113 97.4626 36.0113C96.8333 36.0113 96.3124 35.9288 95.8997 35.7637C95.4871 35.5884 95.157 35.3511 94.9094 35.0519C94.6618 34.7425 94.4864 34.3711 94.3833 33.9378C94.2904 33.5045 94.244 33.0248 94.244 32.4987V25.6592ZM108.508 31.7405C108.508 32.3801 108.415 32.9681 108.229 33.5045C108.044 34.0307 107.776 34.4846 107.425 34.8662C107.074 35.2376 106.651 35.5265 106.156 35.7328C105.671 35.9391 105.124 36.0423 104.516 36.0423C103.917 36.0423 103.371 35.9391 102.875 35.7328C102.391 35.5265 101.973 35.2376 101.622 34.8662C101.271 34.4846 100.998 34.0307 100.802 33.5045C100.606 32.9681 100.508 32.3801 100.508 31.7405C100.508 31.1009 100.606 30.5181 100.802 29.9919C101.008 29.4658 101.287 29.0171 101.638 28.6457C101.999 28.2743 102.422 27.9855 102.906 27.7792C103.402 27.5728 103.938 27.4697 104.516 27.4697C105.104 27.4697 105.64 27.5728 106.125 27.7792C106.62 27.9855 107.043 28.2743 107.394 28.6457C107.745 29.0171 108.018 29.4658 108.214 29.9919C108.41 30.5181 108.508 31.1009 108.508 31.7405ZM106.156 31.7405C106.156 31.0287 106.012 30.4716 105.723 30.0693C105.444 29.6567 105.042 29.4503 104.516 29.4503C103.99 29.4503 103.582 29.6567 103.293 30.0693C103.004 30.4716 102.86 31.0287 102.86 31.7405C102.86 32.4523 103.004 33.0197 103.293 33.4426C103.582 33.8553 103.99 34.0616 104.516 34.0616C105.042 34.0616 105.444 33.8553 105.723 33.4426C106.012 33.0197 106.156 32.4523 106.156 31.7405ZM115.199 29.7289C114.993 29.6773 114.751 29.6257 114.472 29.5741C114.194 29.5122 113.894 29.4813 113.575 29.4813C113.43 29.4813 113.255 29.4968 113.048 29.5277C112.852 29.5483 112.703 29.5741 112.6 29.6051V35.8256H110.294V28.1196C110.707 27.9752 111.192 27.8411 111.749 27.7173C112.316 27.5832 112.945 27.5161 113.636 27.5161C113.76 27.5161 113.91 27.5264 114.085 27.547C114.261 27.5574 114.436 27.578 114.611 27.6089C114.787 27.6296 114.962 27.6605 115.137 27.7018C115.313 27.7327 115.462 27.774 115.586 27.8256L115.199 29.7289ZM116.284 31.8179C116.284 31.0957 116.393 30.4665 116.609 29.93C116.836 29.3833 117.13 28.9294 117.491 28.5683C117.852 28.2073 118.265 27.9339 118.729 27.7482C119.204 27.5625 119.688 27.4697 120.184 27.4697C121.339 27.4697 122.252 27.8256 122.923 28.5374C123.593 29.2389 123.928 30.2756 123.928 31.6477C123.928 31.7818 123.923 31.9313 123.913 32.0964C123.903 32.2511 123.892 32.3904 123.882 32.5142H118.652C118.703 32.9887 118.925 33.3653 119.317 33.6438C119.709 33.9223 120.235 34.0616 120.895 34.0616C121.318 34.0616 121.731 34.0255 122.133 33.9533C122.546 33.8708 122.881 33.7728 123.139 33.6593L123.449 35.5316C123.325 35.5935 123.16 35.6554 122.954 35.7173C122.747 35.7792 122.515 35.8308 122.257 35.8721C122.01 35.9236 121.741 35.9649 121.453 35.9959C121.164 36.0268 120.875 36.0423 120.586 36.0423C119.854 36.0423 119.214 35.934 118.667 35.7173C118.131 35.5007 117.682 35.2067 117.321 34.8353C116.97 34.4536 116.707 34.0049 116.532 33.4891C116.367 32.9733 116.284 32.4162 116.284 31.8179ZM121.7 30.9359C121.69 30.7398 121.654 30.549 121.592 30.3633C121.54 30.1776 121.453 30.0126 121.329 29.8681C121.215 29.7237 121.066 29.6051 120.88 29.5122C120.705 29.4194 120.483 29.373 120.215 29.373C119.957 29.373 119.735 29.4194 119.549 29.5122C119.364 29.5948 119.209 29.7082 119.085 29.8527C118.961 29.9971 118.863 30.1673 118.791 30.3633C118.729 30.549 118.683 30.7398 118.652 30.9359H121.7Z" fill="white"/>
<path d="M51.9676 17.7584H55.175C57.6958 17.7584 59.3952 16.1379 59.3952 13.8196C59.3952 11.5013 57.6958 9.88076 55.175 9.88076H51.9676V17.7584ZM52.8004 17.0382V10.601H55.13C57.2232 10.601 58.5736 11.929 58.5736 13.8196C58.5736 15.7102 57.2232 17.0382 55.13 17.0382H52.8004ZM63.516 17.8147C65.2491 17.8147 66.5208 16.5543 66.5208 14.7987C66.5208 13.0431 65.2491 11.7939 63.516 11.7939C61.7829 11.7939 60.5 13.0431 60.5 14.7987C60.5 16.5543 61.7829 17.8147 63.516 17.8147ZM63.516 17.1057C62.2556 17.1057 61.3102 16.1829 61.3102 14.7987C61.3102 13.4145 62.2556 12.4916 63.516 12.4916C64.7764 12.4916 65.7105 13.4145 65.7105 14.7987C65.7105 16.1829 64.7764 17.1057 63.516 17.1057ZM75.9436 11.8389L74.0642 16.8694L72.1736 11.8389H71.4871L69.5852 16.8694L67.7283 11.8389H66.9631L69.1913 17.7584H69.9453L71.8135 12.908L73.6816 17.7584H74.4356L76.6751 11.8389H75.9436ZM80.8943 11.7939C79.8702 11.7939 79.0711 12.2103 78.6435 12.9305V11.8389H77.8782V17.7584H78.6773V14.6524C78.6773 13.3019 79.4763 12.5142 80.748 12.5142C81.8733 12.5142 82.5261 13.1556 82.5261 14.4048V17.7584H83.3251V14.326C83.3251 12.6267 82.3347 11.7939 80.8943 11.7939ZM85.4943 17.7584H86.2934V9.4081H85.4943V17.7584ZM90.9362 17.8147C92.6693 17.8147 93.941 16.5543 93.941 14.7987C93.941 13.0431 92.6693 11.7939 90.9362 11.7939C89.2031 11.7939 87.9202 13.0431 87.9202 14.7987C87.9202 16.5543 89.2031 17.8147 90.9362 17.8147ZM90.9362 17.1057C89.6758 17.1057 88.7304 16.1829 88.7304 14.7987C88.7304 13.4145 89.6758 12.4916 90.9362 12.4916C92.1966 12.4916 93.1307 13.4145 93.1307 14.7987C93.1307 16.1829 92.1966 17.1057 90.9362 17.1057ZM97.61 11.7939C96.6759 11.7939 95.7981 12.0865 95.2016 12.5929L95.5618 13.1894C96.0457 12.7617 96.7659 12.4916 97.5312 12.4916C98.6341 12.4916 99.208 13.0431 99.208 14.0559V14.4161H97.3286C95.6293 14.4161 95.0441 15.1813 95.0441 16.0929C95.0441 17.117 95.8656 17.8147 97.2048 17.8147C98.1839 17.8147 98.8816 17.4433 99.2418 16.8356V17.7584H100.007V14.0897C100.007 12.5592 99.1405 11.7939 97.61 11.7939ZM97.3286 17.1845C96.3833 17.1845 95.8319 16.7568 95.8319 16.0704C95.8319 15.4627 96.2032 15.0125 97.3511 15.0125H99.208V15.9803C98.8929 16.7568 98.2289 17.1845 97.3286 17.1845ZM106.802 9.4081V12.9643C106.307 12.199 105.497 11.7939 104.551 11.7939C102.863 11.7939 101.603 13.0093 101.603 14.7987C101.603 16.588 102.863 17.8147 104.551 17.8147C105.53 17.8147 106.352 17.3871 106.836 16.588V17.7584H107.601V9.4081H106.802ZM104.619 17.1057C103.358 17.1057 102.413 16.1829 102.413 14.7987C102.413 13.4145 103.358 12.4916 104.619 12.4916C105.868 12.4916 106.813 13.4145 106.813 14.7987C106.813 16.1829 105.868 17.1057 104.619 17.1057ZM115.191 17.8147C116.924 17.8147 118.196 16.5543 118.196 14.7987C118.196 13.0431 116.924 11.7939 115.191 11.7939C113.458 11.7939 112.175 13.0431 112.175 14.7987C112.175 16.5543 113.458 17.8147 115.191 17.8147ZM115.191 17.1057C113.931 17.1057 112.986 16.1829 112.986 14.7987C112.986 13.4145 113.931 12.4916 115.191 12.4916C116.452 12.4916 117.386 13.4145 117.386 14.7987C117.386 16.1829 116.452 17.1057 115.191 17.1057ZM122.843 11.7939C121.819 11.7939 121.02 12.2103 120.593 12.9305V11.8389H119.827V17.7584H120.626V14.6524C120.626 13.3019 121.425 12.5142 122.697 12.5142C123.822 12.5142 124.475 13.1556 124.475 14.4048V17.7584H125.274V14.326C125.274 12.6267 124.284 11.7939 122.843 11.7939Z" fill="white"/>
<g clip-path="url(#clip0_2_1804)">
<path d="M36.2429 7.4619C36.3149 7.4619 36.3869 7.4619 36.463 7.4619C36.6397 9.64442 35.8066 11.2752 34.7942 12.4561C33.8008 13.6289 32.4405 14.7664 30.2403 14.5938C30.0935 12.4426 30.9279 10.9327 31.939 9.7545C32.8767 8.65644 34.5958 7.67934 36.2429 7.4619Z" fill="white"/>
<path d="M42.9032 30.1786C42.9032 30.2004 42.9032 30.2194 42.9032 30.2398C42.2849 32.1124 41.4029 33.7174 40.3266 35.2068C39.3441 36.559 38.14 38.3787 35.9901 38.3787C34.1324 38.3787 32.8984 37.1841 30.9945 37.1515C28.9805 37.1189 27.8729 38.1504 26.0315 38.4099C25.8209 38.4099 25.6102 38.4099 25.4037 38.4099C24.0515 38.2143 22.9602 37.1434 22.1652 36.1785C19.821 33.3274 18.0095 29.6445 17.6725 24.9316C17.6725 24.4695 17.6725 24.0089 17.6725 23.5468C17.8151 20.1738 19.4541 17.4314 21.6325 16.1023C22.7822 15.3956 24.3627 14.7936 26.1226 15.0627C26.8768 15.1796 27.6474 15.4378 28.3228 15.6933C28.9628 15.9392 29.7633 16.3755 30.5216 16.3524C31.0353 16.3374 31.5463 16.0697 32.064 15.8808C33.5807 15.3331 35.0674 14.7053 37.027 15.0002C39.3821 15.3562 41.0537 16.4027 42.0865 18.0171C40.0942 19.285 38.5192 21.1958 38.7883 24.4587C39.0274 27.4226 40.7506 29.1567 42.9032 30.1786Z" fill="white"/>
</g>
<defs>
<clipPath id="clip0_2_1804">
<rect width="30.948" height="30.948" fill="white" transform="translate(14.8133 7.46175)"/>
</clipPath>
</defs>
</svg>
