<svg width="42" height="36" viewBox="0 0 42 36" fill="none" xmlns="http://www.w3.org/2000/svg">
<path d="M6.19031 0.835449C7.34476 2.09335 7.38555 3.77377 7.79023 5.30905C8.48667 7.95385 7.9314 7.47327 10.3752 7.4765C19.752 7.48618 29.1288 7.4636 38.5056 7.4507C38.7284 7.4507 38.9542 7.44747 39.177 7.45392C40.8679 7.5023 41.58 8.41508 41.2004 10.0858C40.8396 11.6695 40.4475 13.2499 40.0679 14.8304C39.2052 18.4363 38.3394 22.0455 37.4767 25.6515C37.4108 25.9224 37.4233 26.2869 37.1284 26.3708C36.8681 26.4449 36.7206 26.1192 36.5512 25.945C35.1803 24.5549 33.8376 23.1357 32.4416 21.7746C31.924 21.2682 31.9522 20.9199 32.4698 20.4715C32.8965 20.1038 33.2729 19.6749 33.6651 19.2685C34.2297 18.6815 34.2078 18.575 33.4517 18.3654C31.7546 17.8945 30.0543 17.4429 28.354 16.9752C27.0615 16.6204 25.7721 16.2431 24.4765 15.8947C24.2161 15.8238 23.8961 15.6432 23.6765 15.8367C23.4318 16.0528 23.6483 16.3689 23.7173 16.6333C24.4859 19.5846 25.2608 22.539 26.0356 25.4902C26.0921 25.7096 26.1737 25.9257 26.227 26.1482C26.3368 26.5869 26.5407 26.5546 26.8042 26.2804C27.3156 25.7515 27.8457 25.2419 28.3383 24.6936C28.6739 24.3162 28.928 24.2904 29.2919 24.6742C30.4213 25.8676 31.582 27.0287 32.7208 28.2092C32.8651 28.3608 33.1412 28.506 33.0126 28.7608C32.8933 29.0027 32.611 28.8898 32.4008 28.8898C25.4019 28.8898 18.4062 28.8865 11.4073 28.8769C10.4254 28.8769 9.91719 28.4285 9.68818 27.4738C8.23256 21.3972 6.77067 15.3206 5.31506 9.24401C4.98252 7.85709 4.64685 6.47018 4.35824 5.07682C4.21393 4.37691 3.92218 3.95439 3.163 3.94149C2.63597 3.91891 2.1058 3.8415 1.5819 3.74796C0.22981 3.51251 -0.278401 2.5449 0.248632 1.23217C0.301963 1.09993 0.389802 0.983817 0.311375 0.835449C2.27206 0.835449 4.22962 0.835449 6.19031 0.835449Z" fill="#1B7FED"/>
<path d="M16.2624 35.2083C14.5715 35.2083 13.9096 34.6116 13.9064 33.0796C13.9033 31.6894 14.9417 30.6025 16.2687 30.6057C17.5329 30.6089 18.7156 31.8217 18.6937 33.0925C18.6686 34.5149 17.8717 35.2083 16.2624 35.2083Z" fill="#1B7FED"/>
<path d="M30.3823 35.2084C28.9675 35.2084 28.3213 34.7665 28.0923 33.6376C27.8507 32.4603 28.3965 31.3153 29.4098 30.8573C30.5047 30.3639 31.6874 30.6928 32.3838 31.6798C33.0144 32.5732 32.9234 33.9472 32.1736 34.7665C31.7721 35.2051 31.7533 35.2084 30.3823 35.2084Z" fill="#1B7FED"/>
</svg>
